<svg version="1" xmlns="http://www.w3.org/2000/svg" width="1397.333" height="1397.333" viewBox="0 0 1048.000000 1048.000000"><path d="M12.7 116.8c-2.1.4-2.3 1.4-1.3 6.7.9 5.5 1.7 8.9 3.6 17.2 2.3 9.7 3 13.1 3.5 15.8.1 1.1 1 4.7 1.8 8 .9 3.3 1.9 8 2.2 10.5.4 2.4 1.1 5.2 1.6 6.2.5.9.9 2.1.8 2.5-.1.4 0 1.1.1 1.5.3 1 .4 1.5 1.3 5.8.4 1.9.9 4.5 1.2 5.7 1.8 8.1 3.6 17.1 3.7 18 0 .5.4 1.7.8 2.9.5 1.1 1.1 3.8 1.5 6 .8 4.5 1.3 6.8 1.5 7.1.3.3.2.2 1.5 5.8.5 2.2.9 4.7 1 5.5 0 .8.4 2.4.8 3.5.3 1.1.9 3.5 1.2 5.4.3 1.9.8 3.8 1.1 4.3.3.4.7 2.2.9 4 .2 1.8 1.1 6 1.9 9.4.8 3.4 1.7 7.2 2 8.5.2 1.3 1.1 5.4 2 9 1.6 7.2 2.5 11.2 3.1 14.4.2 1.1.6 2.9.9 4 .2 1.1 1.2 5.4 2.1 9.5.9 4.1 1.8 7.9 1.9 8.5.2.5.6 2.8 1 5s1.1 5.1 1.6 6.5c.5 1.4 1.1 3.8 1.4 5.5.3 1.6.7 4.1 1 5.5 1.6 7.3 3 13.6 3.1 14 1.2 5.1 1.6 6.8 1.9 8.5.2 1.1 1.1 5 2 8.6 1.5 6.8 2.3 10.3 3.2 14.9.2 1.4.7 3.6 1 5 .4 1.4.8 3.4 1 4.5.2 1.1 1 4.9 1.9 8.5.9 3.6 1.9 7.8 2.2 9.5.2 1.6 1.3 6.6 2.3 11 1.1 4.4 2.2 9.1 2.4 10.5.3 1.4.7 3.4 1 4.5.2 1.1 1 4.2 1.6 7 .6 2.7 1.4 6.1 1.6 7.5.3 1.4 1.3 6.1 2.3 10.5 1.1 4.4 2.9 12.5 4.1 18 1.2 5.5 2.8 12.7 3.6 16 1.2 5.2 2.1 9.5 5 22.5.3 1.3 1.2 5.6 2.1 9.5.8 3.8 1.7 7.9 1.9 9 .2 1.1 1 4.9 1.9 8.5.9 3.6 1.9 7.8 2.2 9.5.2 1.6 1.1 5.7 2 9 .8 3.3 1.7 7.3 2 9 .3 1.6 1.1 5.7 1.9 9 .8 3.3 1.7 7.1 2 8.5.6 2.9 3.3 14.9 4.5 20.5.5 2.2 1.1 5.1 1.4 6.5.3 1.4.9 4.3 1.5 6.5 3.3 13.9 4.3 18.3 4.6 20.5.2 1.4.9 4.5 1.4 7 1.5 6.7 2.1 9.1 3 13.5.5 2.2 1.2 5.1 1.5 6.5.3 1.4.8 3.6 1 5 .2 1.4.7 3.5 1 4.8.3 1.2.7 3.1 1 4.3.2 1.1.6 2.8.9 3.7.3.9.8 2.9 1.1 4.4 1.3 7 1.7 8.5 2.5 11.8.5 1.9 1.1 4.8 1.4 6.5.3 1.6 1 4.5 1.5 6.3.5 1.8 1 3.5 1 3.7-.1.5.5 3 1.7 8.5.3 1.4.7 3.4.9 4.5.1 1.1.8 3.8 1.3 6 .6 2.2 1.4 5.2 1.7 6.7 1 5.3 1.5 7.7 4.6 20.9 1.6 7.4 3.2 14.5 3.4 15.9.2 1.4.4 2.5.5 2.5.1 0 .3.9.5 2s1.1 5 2 8.5c.9 3.6 1.8 7.7 2 9.2.2 1.5.8 4.4 1.4 6.5.6 2.1 1.3 5.1 1.5 6.8.7 3.7.7 3.9 4.5 20.4 3.5 15.2 4.1 17.8 4.6 20.6.2 1.1 1.1 4.9 2 8.5.8 3.6 1.8 7.7 2 9.2.2 1.5.8 4.4 1.4 6.5.6 2.1 1.3 5.1 1.5 6.8.3 1.6.8 4 1.1 5.2.3 1.3.7 3.2 1 4.4.2 1.1.6 2.8.9 3.7.3.9.7 2.9 1 4.5.3 1.5.7 3.5 1 4.5.3.9.7 2.9 1 4.5.8 4.5 1.8 7.1 3.3 8.2.9.7 40 1 113.8.9 122.2 0 114.8.3 115.9-5.4.2-1.4.5-2.5.6-2.5.1 0 .3-1.1.6-2.5.2-1.4 1.6-7.2 3-13s2.8-11.2 3-12c.2-.8 1.1-4.4 1.9-8 .9-3.6 1.9-7.6 2.1-9 .3-1.4.7-3.3 1-4.2.3-.9.7-2.5.9-3.5.2-1 3.4-14 7-28.8 3.7-14.9 6.8-27.7 7-28.5.2-.8.4-1.5.5-1.5.1 0 .3-.9.5-2 .6-3.5 1.6-7.8 3.2-14 .8-3.3 1.7-6.7 1.8-7.5.2-.8.4-1.5.5-1.5.1 0 .4-1.1.6-2.5.3-1.4.9-4.3 1.5-6.5 1.4-5.2 1.9-7.3 2.5-11 .3-1.7.9-4.1 1.4-5.5.4-1.4 2-7.2 3.4-13s3.5-14.6 4.7-19.5c1.2-5 2.3-9.7 2.4-10.5.1-.8.8-3.5 1.4-6 .7-2.5 1.5-5.4 1.8-6.5.8-3.7 1.1-5 1.3-5 .1 0 .4-1.1.6-2.4.4-2.5 3.2-14.2 4-17.1.9-3.5 4.5-17.7 4.9-19.5 1-4.2 1.6-7.1 2-9.4.2-1.3.9-3.8 1.4-5.5.6-1.7 1.2-4.2 1.5-5.6.3-1.4 1.8-7.9 3.5-14.4 1.6-6.5 2.9-12.2 2.9-12.5-.1-.3.1-1.3.5-2.1.5-1.5 1.8-6.2 2.3-9 .4-1.9 5.3-22 7.1-29 .7-3 1.6-6.6 1.9-8 .3-1.4.7-3.3 1-4.2.3-.9.7-2.5.9-3.5.2-1 1.3-5.9 2.5-10.8 1.2-5 2.4-9.7 2.6-10.5 5-21.2 6.9-26.9 8.4-25.4.7.7 6.3 20.8 8.6 30.6.2 1 .6 2.8 1 4 .3 1.3.6 3.2.8 4.3.4 2.4 3.4 14.7 4.7 19 1 3.5 4.8 19.1 5.3 22 .2 1.1.9 3.8 1.4 6 .6 2.2 1.3 5.2 1.6 6.7.2 1.5.7 3.1 1 3.6.3.5.8 2.2 1.1 3.8.3 1.6.7 3.3.9 3.9.1.5.7 2.8 1.1 5 .5 2.2 1 4.2 1 4.5.1.3.5 1.6.8 3 .4 1.4.9 3.6 1.2 5 .2 1.4 1.8 7.9 3.5 14.5s3.3 13.1 3.6 14.5c.3 1.4 1 4.3 1.6 6.5.5 2.2 1.2 4.8 1.4 5.7.2 1 .6 2.6.8 3.5.6 2.7 6.4 26.7 8.7 35.8 1.1 4.4 2.2 9.1 2.5 10.5.9 4.1 1.2 5.5 1.5 5.5.1 0 .3.9.5 2 .1 1.1 1.2 5.8 2.4 10.5s2.4 9.6 2.6 10.8c.3 1.3 1.2 4.9 2 8 2.1 7.9 2 7.6 4.3 17.7 1.1 4.9 2.5 10.5 3 12.3.5 1.8 1 3.6 1.1 4 0 .4.5 2.5 1.1 4.7.6 2.2 1.3 4.9 1.5 6 .4 2.3 1.2 5.7 1.9 8.5.3 1.1.7 2.8.9 3.8.2.9 2.2 9.1 4.5 18.2 2.2 9.1 4.3 17.8 4.6 19.5.8 4 1.3 6 1.6 6 .1 0 .3.9.5 2 .7 4.5 1.6 7.9 2.5 9.7.6 1.1.8 2.2.5 2.5-.2.3 0 1.7.6 3.2.5 1.4 1.2 3.5 1.4 4.6.3 1.1.9 3.8 1.4 6 .4 2.2 1.1 5 1.4 6.2.3 1.3.8 3.1 1 4 .4 1.9 4.6 18.1 5 19.8.2.5.7 2.9 1.1 5.1.5 2.9 1.4 4.5 2.9 5.1 2.5 1 223.1 1 226.3-.1 2-.7 2.9-3 4.9-13.2.1-.7 1-4.5 1.9-8.5.9-4.1 1.9-8.5 2.1-9.9.3-1.4.7-3.3 1-4.2.3-1 .7-2.8 1-4 .2-1.3.6-3.4.9-4.8.4-1.4.8-3.6 1.1-5 .3-1.4.8-3.4 1.1-4.5.4-1.1.7-2.5.8-3 0-.6.4-2.6.8-4.5 3-13 6.7-29.9 7.1-32 .2-1.4 1-4.9 1.6-7.8.7-3 1.3-6.1 1.5-7 .2-.9.4-1.7.5-1.7.1 0 .3-.9.5-2 .4-2.4 1.1-5.6 3-13.9.8-3.3 1.7-7.6 2-9.5.3-1.9.8-3.7 1-4.1.4-.6 1.2-4.3 2-9 .2-1.4 2-9.5 4-18s3.8-16.6 4.1-18c.2-1.4 1.4-6.6 2.6-11.5 1.1-5 2.2-9.7 2.3-10.5.1-.8.6-3.3 1.1-5.5 1.1-5.5 1.1-5.5 1.4-5.8.1-.1.3-1.1.4-2.2.2-1.1 1.2-6.1 2.4-11 1.2-5 2.3-10.4 2.6-12 .3-1.7 1-4.5 1.5-6.3.5-1.8 1-3.5 1-3.7.1-.3.1-.6.2-.8 0-.1.2-1.1.4-2.2s.6-2.9.8-4c.5-1.7 5.5-24 7.3-32.4.3-1.3 1.2-5.4 2-9 .8-3.6 1.7-8 2-9.6.3-1.7.9-4.4 1.4-6 .5-1.7 1.1-4.4 1.4-6 .2-1.7 1.2-6.2 2.1-10 .9-3.9 1.8-7.7 2-8.6.4-2.2 4.5-20.8 5.1-23.4.3-1.1.7-3.1 1-4.5.2-1.4.8-4.3 1.3-6.5 2.5-10.7 3.3-14.2 3.7-16.5.3-1.4.7-3.3 1-4.2.5-1.7 1-4.2 1.9-9 .3-1.4 1.2-5.3 2-8.5s1.6-6.9 1.9-8.3c.8-4 1.5-7 2-8.8.3-.9.8-3.1 1.1-4.7.2-1.7.7-4.1 1-5.5.3-1.4.8-3.4 1-4.5.3-1.1.7-3.1 1-4.5.4-1.4.8-3.4 1-4.5.3-1.1.7-3 1-4.3 1.7-7.5 2.6-12.2 2.7-13.7 0-.6.4-1.7.8-2.5s1.1-3.1 1.4-5c.3-1.9 1.5-7.8 2.7-13 1.1-5.2 2.2-10.4 2.5-11.5.2-1.1.8-4.1 1.4-6.6.6-2.6 1.3-5.5 1.5-6.5.2-1.1.4-1.9.5-1.9.1 0 .3-.9.5-1.9.2-1.1 1.1-5.1 1.9-9 .9-3.9 1.8-8.2 2.1-9.6.2-1.4.9-4.6 1.5-7.1.6-2.6 1.3-5.5 1.5-6.5.2-1.1.4-1.9.5-1.9.2 0 .8-2.9 1.5-6.5.2-1.4.7-3.5 1-4.8.3-1.2.7-3.1 1-4.3.2-1.1.6-2.8.9-3.7.3-.9.8-3.1 1.1-4.7.2-1.7.7-4.1 1-5.5.3-1.4.8-3.4 1-4.5.3-1.1.7-3.1 1-4.5.4-1.4.8-3.4 1-4.5.3-1.1.7-3 1-4.3.3-1.2.7-3.2 1-4.5.2-1.2.8-3.6 1.2-5.2.4-1.7.7-3.2.8-3.5 1-4.8 1.6-8.1 1.7-8.7 0-.5.4-1.8.9-2.9.4-1.2 1.1-4.1 1.4-6.5.4-2.4.8-4.6 1-5 .2-.3.7-2 1-3.7.3-1.7 1.2-6.2 2-9.9 1.5-6.7 2-9.1 3-13.6.2-1.2.9-4.2 1.6-6.7.6-2.5 1.3-5.5 1.5-6.8.5-2.9 1.3-6.7 1.9-9.5.3-1.2.7-3.2.9-4.5.3-1.2.7-2.6 1-3 .2-.4.7-2.7 1.1-5.2.4-2.5.8-4.7 1-5.1.2-.3.7-2.1 1-4 .3-1.9 1-5 1.5-6.9.5-1.9 1.2-5.1 1.5-7 .9-4.5 1.3-6.5 1.5-6.5.1 0 .3-.7.5-1.5.8-4.4 3.7-17.6 5.5-25.5 1.2-5 2.3-10.1 2.6-11.5.2-1.4.9-4.6 1.5-7.1.6-2.6 1.2-5.5 1.4-6.5.2-1.1.4-1.9.5-1.9.2 0 .6-2 1.4-6.5.4-1.9.9-4.2 1.1-5 .6-2.2 1.5-6.7 2.7-13.3.8-4.2.8-6.1 0-6.5-1.1-.8-224.9-.8-225.6-.1-.3.2-.7 1.6-1 2.9-.3 1.4-.7 3.6-1 5-.3 1.4-1 5-1.6 8-.6 3-1.2 6.6-1.5 8-.3 1.4-.8 3.8-1 5.5-.3 1.6-.8 3.7-1 4.5-.2.8-.6 3.1-.9 5-.3 1.9-.8 4.6-1.1 6-.3 1.4-.7 3.8-1 5.5-.3 1.6-.8 4.3-1.2 6-.3 1.6-.7 3.9-.9 5-.4 2.7-1.3 7.4-2.1 11-.4 1.6-.7 3.4-.8 4 0 .5-.4 3-.9 5.5s-1 5.4-1.2 6.5c-.2 1.1-.6 3.1-.9 4.5-1 4.8-1.5 7.5-2.1 11-.3 1.9-.7 4.3-1 5.2-.6 1.9-.9 3.6-1.9 9.8-.4 2.5-.9 5.4-1.2 6.5-.3 1.1-.6 2.9-.8 4-.1 1.1-.8 4.7-1.5 8-.6 3.3-1.3 7.1-1.6 8.5-.2 1.4-.9 4.7-1.4 7.5-.5 2.7-1.2 6.1-1.4 7.5-.3 1.4-.8 3.6-1.1 5-.3 1.4-.8 4.1-1.1 6-.3 1.9-1.8 10.2-3.4 18.5-1.6 8.2-3.1 16.3-3.4 18-.3 1.6-.7 4.1-1 5.5-1.3 5.8-1.6 7.7-2.2 11.9-.3 2.5-.7 4.8-.9 5.2-.3.4-.7 2.4-1 4.5-.4 2.2-.8 4.6-1 5.4-.3.8-.7 3.2-1.1 5.4-.3 2.1-.8 4.7-1 5.7-1.1 5.2-1.4 6.6-1.9 9.9-.5 3.4-.8 5-2 10.2-.7 3.1-1.3 6.6-2 11.3-.4 2.2-1.1 5.7-1.6 7.8-.5 2-1.2 5.4-1.4 7.5-.2 2-.9 5.9-1.5 8.7-1.4 5.8-1.5 6.5-2.6 12.5-.4 2.5-.8 4.7-.9 5-.1.3-.5 2.5-.9 5-.5 2.5-1 5.4-1.3 6.5-.2 1.1-.5 3.2-.8 4.7-.2 1.5-.6 3.5-.9 4.5-.3 1-.7 3.4-1 5.3-.3 1.9-1.3 7.1-2.2 11.5-.8 4.4-1.8 9.3-2 11-.3 1.6-.7 4.1-1.1 5.5-.3 1.4-.7 3.7-.9 5.1-.2 1.4-.8 4.8-1.4 7.5-.6 2.7-1.3 6.2-1.6 7.9-.2 1.6-.6 4.1-.9 5.5-1.1 5.5-1.9 9.6-2.1 11.5-.1 1.1-.3 2-.4 2-.2 0-.7 2.4-1.5 7-.9 5.1-2.2 6.9-3.9 5.3-.7-.7-1.3-1.7-1.3-2.3-.1-1.5-1-5.8-1.7-7.5-.3-.8-.7-2.6-1-4-.2-1.4-1.3-6.3-2.4-11-1.2-4.7-4.6-19.5-7.7-33-3-13.5-6-26.3-6.6-28.5-.5-2.2-1.2-5-1.4-6.3-.2-1.3-.7-3.2-1-4.2-.6-2-1.3-5.2-2-9-.2-1.4-1.6-7.2-3-13s-3-12.5-3.5-15c-.6-2.5-1.2-5.4-1.5-6.5-.3-1.1-.7-2.9-.9-4-.2-1.1-1.1-5-2-8.6-.8-3.7-1.7-7.8-2-9-.3-1.3-1.2-5.3-2.1-8.9-.9-3.6-1.8-7.4-2-8.5-.1-1.1-.8-4-1.4-6.5-.6-2.5-1.4-5.4-1.6-6.5-2.2-9.7-2.9-13.1-4.7-20.5-1.1-4.7-2.2-9.3-2.4-10.3-.2-1-.5-2.6-.8-3.5-.3-.9-.7-2.8-1-4.2-.2-1.4-1.2-5.7-2.1-9.5-.9-3.9-1.8-7.8-2-8.8-.2-1-.7-2.8-1.1-4-.4-1.2-.8-3.3-1-4.7-.1-1.4-1.6-8.1-3.3-15-1.7-6.9-3.5-14.5-4-17-1.8-8-6.1-26.4-6.8-29-.3-1.4-.8-3.4-1-4.5-.2-1.1-.8-3.6-1.3-5.5s-1.2-5.1-1.5-7c-.9-4.5-1.3-6.4-1.5-6.8-.3-.2-.2-.1-1.5-5.7-.5-2.2-.9-4.2-1-4.5-.4-1.5-1.6-6.8-1.9-8.5-.2-1.1-1.6-7-3.1-13-1.5-6.1-2.8-11.9-3-13-.1-1.1-.8-4-1.4-6.5-.6-2.5-1.4-5.6-1.6-7-.3-1.4-.8-3.6-1.2-5-.4-1.4-.8-3.2-.9-4-.3-2.1-1-4.8-2.3-9.5-.6-2.2-1.2-4.9-1.4-6-.1-1.1-.8-2.9-1.4-3.9-1.1-1.9-3.1-2-98.4-2-53.6-.1-99 .1-100.9.4-3.5.5-3.5.6-5.7 8.8-1.2 4.6-2.4 9.7-2.7 11.5-.6 3.7-1.4 7.2-1.6 7.2-.1 0-.4 1.3-1.4 6.5-.2 1.4-.5 2.6-.7 2.7-.2.4-1.9 7.9-2.5 11.8-.1.5-.3 1.3-.4 1.7-.1.5-.4 1.2-.5 1.8-.1.5-.3 1.1-.5 1.2-.2.3-.4 1.5-1.3 5.8-.5 2.2-1 4.5-3.3 14.5-.7 2.8-1.3 5.6-1.8 8-.2 1.1-.9 3.8-1.4 6-.6 2.2-1.3 5.1-1.6 6.5-.3 1.4-.8 3.6-1.1 5-.3 1.4-.8 3.6-1.1 5-.3 1.4-1 4.3-1.6 6.5-.5 2.2-1.1 4.7-1.3 5.5-.2.8-.8 3.5-1.4 6-1.5 5.9-2 8.2-3.6 15.5-.2 1.1-2.2 9.9-4.5 19.5-2.2 9.6-4.2 18.4-4.5 19.5-.2 1.1-.4 2.2-.5 2.5-.2.3-.2.9-.1 1.3s-.3 1.6-.9 2.7c-.5 1-1.2 3.5-1.5 5.6-.2 2-.9 5.1-1.4 6.8-.5 1.7-1.5 5.8-2.2 9.1-.7 3.3-1.3 6.2-1.4 6.5-.7 2.5-1.6 6-2 8.5-.7 3.7-1.3 6-1.5 6-.1 0-.3.7-.5 1.6-.1 1-1.1 5-2 9-.9 4.1-1.9 8.5-2.1 9.9-.3 1.4-1 4.3-1.6 6.5-.5 2.2-1.2 5.1-1.4 6.5-.3 1.4-.8 3.4-1.1 4.5-.8 2.3-.9 2.7-1.7 7.9-.3 2.1-.8 4.1-1.1 4.5-.2.4-.6 1.8-.9 3.2-.2 1.3-2.8 12.3-5.6 24.4-2.9 12.1-5.4 23.1-5.6 24.5-.3 1.4-1.4 5.8-2.4 9.8-1.1 4.1-1.9 7.7-1.9 8 .1.4 0 .9-.1 1.2-.5 1.3-5 20.5-5.6 24-.3 1.4-.9 3.8-1.4 5.5-.5 1.6-1.2 4.3-1.5 6-.2 1.6-.7 3.9-1 5-.2 1.1-.9 3.8-1.4 6-.5 2.2-1.2 5.1-1.4 6.5-.3 1.4-1 4.5-1.7 7s-1.4 5.4-1.6 6.5c-.2 1.1-.7 3.3-1.1 5-.4 1.6-.7 3.2-.8 3.5-.5 3-2.9 10-3.5 10-.8 0-2.2-2.5-2.6-5-.2-.8-.8-3.8-1.4-6.5-.6-2.8-1.3-6.1-1.5-7.5-.2-1.4-.6-3.6-.9-5-.3-1.4-.8-3.9-1.1-5.5-.3-1.7-.8-4.1-1.1-5.5-.3-1.4-.7-3.6-1-5-.3-1.4-.7-3.9-.9-5.5-.4-2.7-1.5-8.4-3.1-15.5-.3-1.4-.7-3.6-1-5-.6-3.8-1.7-9.4-1.9-10.5-.2-.9-1-4.8-2.1-11-.7-4.5-2.1-11.5-3-15.5-.3-1.4-.7-3.9-1-5.5-.3-1.7-1.1-6.2-1.9-10-.8-3.9-1.7-8.6-2-10.5-.3-1.9-1-5.8-1.5-8.5-1-4.7-1.4-6.5-2.5-11.7-.2-1.2-.7-4-1.1-6.3-.3-2.2-.9-5.8-1.4-8-.9-3.8-1.2-5.9-2.5-13.5-.3-1.9-.8-4.3-1.1-5.2-.6-2-1.2-5.1-1.9-9.8-.5-3.3-.8-4.7-1.9-9.9-.2-1-.7-3.4-1-5.2-1.2-7.2-1.6-9.2-5.2-27.4-.9-4.4-1.8-9.1-2-10.5-.2-1.4-.7-3.6-1-5-.3-1.4-.8-3.6-1-5-.3-1.4-1-5.2-1.6-8.5-.6-3.3-1.2-6.7-1.3-7.5-.1-.8-.4-2.4-.8-3.5-.3-1.1-.8-3.8-1.2-6-.7-4.7-1.3-8-2-11.5-.9-3.9-3.6-18.2-4-21.4-.2-1.5-.7-3.7-1-4.7-.4-1.1-.8-3.2-1-4.7-.2-1.5-.9-5.2-1.5-8.2-.6-3-1.3-6.6-1.6-8-2.6-14.1-3.5-18.9-3.9-21-.7-3.6-1.2-6-2-10.5-.4-2.2-1-4.9-1.2-6-.2-1.1-1.3-7-2.4-13-1-6.1-2.1-11.7-2.4-12.5-.2-.8-.7-2.9-.9-4.5-.3-1.7-1-5.5-1.6-8.5-.6-3-1.3-6.9-1.5-8.6-.7-4.7-2.3-8.4-3.7-8.5-3.5-.3-221.7-.4-223.1-.1z"/></svg>